<?xml version="1.0" encoding="utf-8"?>
<!-- Generator: Adobe Illustrator 16.0.0, SVG Export Plug-In . SVG Version: 6.00 Build 0)  -->
<!DOCTYPE svg PUBLIC "-//W3C//DTD SVG 1.1//EN" "http://www.w3.org/Graphics/SVG/1.1/DTD/svg11.dtd">
<svg version="1.1" id="Layer_1" xmlns="http://www.w3.org/2000/svg" xmlns:xlink="http://www.w3.org/1999/xlink" x="0px" y="0px"
	 width="300px" height="160px" viewBox="0 0 300 160" enable-background="new 0 0 300 160" xml:space="preserve">
<path fill="#FFFFFF" d="M152.532,52.095c5.112,2.615,3.959-36.442,6.688-35.558c2.729,0.883-3.461,29.869,2.037,32.944
	c5.496,3.075,11.953-22.258,11.953-22.258s-1.381,16.915,3.998,19.183c5.384,2.268,12.381-13.724,12.381-13.724
	s0.691,8.343,5.229,10.533c4.535,2.191,10.839-11.763,10.839-11.763c1.346,4.114,2.961,4.075,2.961,4.075
	c4.612,2.46,12.763-26.717,14.955-27.909c2.19-1.191,1.997,20.066,1.997,20.066s0.423,9.495,2.652,10.995
	c2.23,1.5,4.344-1.268,3.536-2.806c-0.807-1.538-2.229-0.615-2.229-0.615s-0.5-0.5-0.809-3.804
	c-0.308-3.307-0.498-11.648-0.845-20.297c-0.347-8.65-3.961-6.497-3.961-6.497c-8.918,3.382-10.801,28.984-14.569,26.601
	c-3.766-2.384,4.846-24.411,3.307-26.909c-1.536-2.499-2.575-1.845-2.575-1.845s-7.072,36.173-14.453,38.172
	c-7.38,1.999,2.806-36.096,2.806-36.096s-0.346-2.653-2.344-1.884c-1.999,0.768-5.382,22.334-5.382,22.334
	s-8.918,16.914-12.495,17.76c-3.574,0.846,1.27-23.949-2.996-25.756c-4.27-1.807-11.343,28.024-12.764,28.024
	c-1.422,0,0.884-20.759,0.884-20.759s0.114-9.033-4.421-11.147c-4.535-2.114-5.535,16.684-5.535,16.684s-0.502-12.686-1.424-14.916
	s-2.075-0.885-2.075-0.885S147.418,49.481,152.532,52.095z"/>
<path fill="#989898" d="M125.375,50.215c0.18-0.117,0.287-0.196,0.287-0.196C125.567,50.058,125.471,50.125,125.375,50.215z"/>
<path fill="#989898" d="M125.375,50.215c0.18-0.117,0.287-0.196,0.287-0.196C125.567,50.058,125.471,50.125,125.375,50.215z"/>
<path fill="#FFFFFF" d="M240.794,61.243c0-0.846-1.5-0.999-2.959-1.576c-1.462-0.576-40.712,5.998-40.712,5.998
	c-1.268-0.885,3.115-17.53,0.73-18.76c-2.383-1.23-9.342,21.835-9.342,21.833l-3.535,1.191c1.306-1.96,1.573-7.265-1.886-7.88
	c-3.459-0.614-4.495,9.379-4.495,10.533c0,1.154-9.957,5.228-14.033,5.997s-2.769,1.654-2.769,1.654
	c2.614,5.111,16.761-3.46,16.761-3.46s-9.492,28.87-19.373,28.87c-9.88,0-0.73-40.865-1.23-42.479
	c-0.499-1.615-1.652-1.538-1.652-1.538c-8.42,20.334-2.768,39.095-7.728,41.556c-4.959,2.459-1.999-21.182-1.999-22.72
	s-2.96-1.845-2.96-1.845s-2.191,26.102-8.918,23.91s1.653-29.368,5.267-29.983c3.614-0.616,6.765,6.15,7.765,8.11
	c1,1.961,2.999,0.73,2.999,0.73c0.846-2.537-5.344-11.149-10.687-11.61c-5.343-0.461-8.534,12.226-8.534,12.226
	c-0.96-0.885-3.306-2.153-3.306-2.153c4.075-12.609,2.883-23.603,2.883-23.603c0.961,2.23,2.499,2.806,2.499,2.806
	c4.882,2.307,14.761-10.033,14.3-13.646c-0.461-3.613-13.569-7.88-13.569-7.88c0-4.229,5.958-9.879,4.843-10.418
	c-1.114-0.538-4.151,2.884-4.151,2.884s6.919-21.835-0.423-22.873c-7.343-1.038-12.916,11.033-11.61,20.528
	c1.309,9.495,7.958,11.302,7.958,11.302s-1.538,8.957-9.264,9.533c-7.728,0.577-6.881-24.487-6.881-24.487s-0.116-6.612-2.653-6.612
	s-2.921,5.344-2.921,5.344c-6.382,0-12.494,25.179-12.494,25.179c-3.461,0-10.957,2.999-10.957,2.999s1.769-26.91,0.808-28.255
	c-0.962-1.346-3.152-0.346-3.152-0.346l-0.308,30.869c-24.718,11.725-32.753,90.299-16.031,92.414
	c16.723,2.113,18.606-91.569,18.606-91.569c4.805-4.497,10.917-4.997,10.917-4.997c-2.383,11.263,3.576,11.61,3.576,11.61
	c9.418,2.499,11.186-26.372,11.186-26.372s3.807,14.57,7.266,16.53c2.885,1.635,5.843,0.012,6.749-0.573
	c0.097-0.09,0.192-0.157,0.287-0.196c0,0-0.106,0.079-0.287,0.196c-2.942,2.734-6.941,28.136-6.941,28.136
	c-38.018,18.682-20.642,71.426-10.609,77.5c10.033,6.07,12.839-75.193,13.954-75.193c1.115,0,2.729,0.5,2.729,0.5
	c0.653,0.768-2.96,6.035-2.96,6.035c3.345,3.459,5.92-4.846,5.92-4.846c1.346,0.348,3.345,2.348,3.345,2.348
	c-2.191,12.877-0.576,19.297,3.652,20.949c4.228,1.651,8.149-6.881,8.149-6.881s0.714,3.424,2.345,5.996
	c1.083,1.71,2.94,2.846,3.921,3.075c2.46,0.577,3.689-4.767,3.689-4.767c2.807,4.883,6.422,5.035,6.422,5.035
	c10.494,3.42,21.103-26.101,21.103-26.101l2.23,10.108l2.497,1.73c-0.422-2.074,5.576-22.412,5.576-22.412l3.229-1.192
	c0,0-1.807,34.596,3.998,36.407c5.805,1.804,7.574-20.529,11.302-22.183s8.111,10.724,9.533,13.106
	c1.424,2.386,4.076,2.078,4.076,2.078c5.228,0.574,6.995-9.074,6.995-9.996c0-0.924-0.691-0.615-0.691-0.615
	c-3.344,8.842-6.611,8.303-6.611,8.303c-5.957,1.154-3.998-17.873-13.646-15.451c-9.649,2.42-7.19,19.451-10.42,20.066
	c-3.228,0.613-0.998-32.599-0.998-32.599C199.393,67.624,240.794,62.089,240.794,61.243z M145.188,44.945
	c1.23,2.576-9.457,13.071-11.724,11.033c-2.268-2.038,0.077-15.762,0.077-15.762S143.958,42.369,145.188,44.945z M130.004,35.258
	c-1.042-0.885-2.845-3.575-2.845-3.575c-5.113-7.958,3.076-22.067,6.459-22.528c3.382-0.461-2.192,27.14-2.192,27.14
	S131.046,36.142,130.004,35.258z M82.491,57.053c0,0-2.076,87.148-15.377,85.263c-13.301-1.885-0.769-62.774,7.65-75.23
	C83.183,54.631,82.491,57.053,82.491,57.053z M100.597,57.784c-6.189-0.308-0.807-18.337,7.958-31.83c0,0,0.654-1,0.654-0.654
	c-0.001,0.347,0.037,0.347,0.037,0.347S106.786,58.092,100.597,57.784z M107.747,150.773c-3.614,0.69-21.72-36.826,7.304-68.041
	c0,0,1.076-1.002,1.807-1.192c0.729-0.19,1.037,0,1.037,0S111.36,150.083,107.747,150.773z M124.822,78.324
	c-0.078,0.411-0.123,0.487-0.123,0.487s0.301,0.154-0.924-0.076c-1.223-0.231-2.229-0.154-2.229-0.154
	c0-3.383,3.153-20.873,5.305-21.258C128.784,56.978,125.511,74.701,124.822,78.324z M183.591,85.652c0,0.73-2.306-8.763-0.19-10.917
	l2.768-0.769l0.538-0.23C186.706,73.737,183.591,84.923,183.591,85.652z"/>
</svg>
