<?xml version="1.0" encoding="UTF-8" standalone="no"?>
<svg width="2375px" height="2001px" viewBox="0 0 2375 2001" version="1.1" xmlns="http://www.w3.org/2000/svg" xmlns:xlink="http://www.w3.org/1999/xlink" xmlns:sketch="http://www.bohemiancoding.com/sketch/ns">
    <!-- Generator: Sketch 3.2.2 (9983) - http://www.bohemiancoding.com/sketch -->
    <title>Path 1 + Path 2</title>
    <desc>Created with Sketch.</desc>
    <defs></defs>
    <g id="Page-1" stroke="none" stroke-width="1" fill="none" fill-rule="evenodd" sketch:type="MSPage">
        <g id="Path-1-+-Path-2" sketch:type="MSLayerGroup" fill="#FFFFFF">
            <path d="M2228.49999,427.500013 C2228.49999,427.500013 2247,415.5 2257.5,435.5 C2268,455.5 2240.5,491.5 2211.5,472 C2182.5,452.5 2177,329 2177,329 C2177,329 2179.5,52.5 2151,68 C2122.5,83.5 2016.5,463.000001 1956.5,431 C1956.5,431 1935.5,431.500001 1918,378 C1918,378 1836,559.500001 1777,531 C1718,502.499999 1709,394 1709,394 C1709,394 1618,602.000001 1548,572.5 C1478,542.999999 1496,323 1496,323 C1496,323 1412,652.500001 1340.5,612.5 C1269,572.499999 1349.5,195.500001 1314,184 C1278.5,172.499999 1293.5,680.49997 1227,646.5 C1160.5,612.50003 1192.5,151.5 1192.5,151.5 C1192.5,151.5 1207.5,134.000001 1219.5,163 C1231.5,191.999999 1238,357 1238,357 C1238,357 1251,112.500001 1310,140 C1369,167.499999 1367.5,285 1367.5,285 C1367.5,285 1337.5,555.000001 1356,555 C1374.5,554.999999 1466.50001,167.000001 1522,190.5 C1577.49999,213.999999 1514.50001,536.500001 1561,525.5 C1607.49999,514.499999 1723.5,294.5 1723.5,294.5 C1723.5,294.5 1767.50001,14.0000006 1793.5,4 C1819.49999,-6.00000062 1824,28.5 1824,28.5 C1824,28.5 1691.50001,523.999985 1787.5,498 C1883.49999,472.000015 1975.5,1.5 1975.5,1.5 C1975.5,1.5 1989.00001,-7 2009,25.5 C2028.99999,58 1917.00001,344.499987 1966,375.5 C2014.99999,406.500013 2039.50001,73.4999997 2155.5,29.5 C2155.5,29.5 2202.50001,1.50000254 2207,114 C2211.49999,226.499997 2213.99999,335.000013 2217.99999,378.000013 C2221.99999,421.000013 2228.49999,427.500013 2228.49999,427.500013 Z" id="Path-1" sketch:type="MSShapeGroup"></path>
            <path d="M1816.5,579 C1847.5,595 1790.5,811.50001 1807,823 C1807,823 2317.5,737.499995 2336.5,745 C2355.5,752.500005 2375,754.499995 2375,765.5 C2375,776.500005 1836.5,848.50001 1807.5,871 C1807.5,871 1778.5,1302.99998 1820.5,1295 C1862.5,1287.00002 1830.5,1065.50001 1956,1034 C2081.5,1002.49999 2056,1250.00002 2133.5,1235.00002 C2133.5,1235.00002 2176,1242.00001 2219.5,1127 C2219.5,1127 2228.5,1122.99998 2228.5,1135 C2228.5,1147.00002 2205.5,1272.49998 2137.5,1265 C2137.5,1265 2103,1268.99998 2084.5,1238 C2066,1207.00002 2009,1046.00001 1960.5,1067.5 C1912,1088.99999 1889,1379.49998 1813.5,1356 C1738,1332.50002 1761.5,882.5 1761.5,882.5 L1719.5,898 C1719.5,898 1641.5,1162.49998 1647,1189.5 L1614.5,1167 L1585.5,1035.5 C1585.5,1035.5 1447.5,1419.49998 1311,1375 C1311,1375 1264,1372.99998 1227.5,1309.5 C1227.5,1309.5 1211.5,1378.99998 1179.5,1371.5 C1166.72901,1368.50681 1142.58672,1353.73267 1128.5,1331.5 C1107.28992,1298.02475 1098,1253.5 1098,1253.5 C1098,1253.5 1047,1364.49998 992,1343 C937,1321.50002 916,1238.00001 944.5,1070.5 C944.5,1070.5 918.5,1044.50001 901,1040 C901,1040 867.5,1148.00001 824,1103 C824,1103 871,1034.50001 862.5,1024.5 C862.5,1024.5 841.5,1017.99998 827,1018 C812.5,1018.00002 776,2074.99998 645.5,1996 C515,1917.00002 289,1230.99999 783.5,988 C783.5,988 838.999995,635.500001 877.5,619.5 C877.5,619.5 830.999995,655.000001 786,629.5 C741.000005,603.999999 691.5,414.5 691.5,414.5 C691.5,414.5 668.499999,790 546,757.5 C546,757.5 468.499999,753 499.5,606.5 C499.5,606.5 419.999995,613 357.5,671.5 C357.5,671.5 333,1890 115.5,1862.5 C-102,1835 2.5,813 324,660.5 L328,259 C328,259 356.500004,246 369,263.5 C381.499996,281 358.5,631 358.5,631 C358.5,631 456.000004,591.999981 501,592 C501,592 580.500004,264.5 663.5,264.5 C663.5,264.5 668.500004,195 701.5,195 C734.499996,195 736,281 736,281 C736,281 725.000004,607 825.5,599.5 C925.999996,592 946,475.5 946,475.5 C946,475.5 859.500004,452 842.5,328.5 C825.499996,205 898.000004,48 993.5,61.5 C1089,75 999,359 999,359 C999,359 1038.5,314.499997 1053,321.5 C1067.5,328.500003 990.000004,401.999997 990,457 C990,457 1160.5,512.499997 1166.5,559.5 C1172.5,606.500003 1044,766.999997 980.5,737 C980.5,737 960.500004,729.499997 948,700.5 C948,700.5 963.500004,843.499997 910.5,1007.5 C910.5,1007.5 941.000004,1024 953.5,1035.5 C953.5,1035.5 995.000004,870.499997 1064.5,876.5 C1134,882.500003 1214.5,994.499997 1203.5,1027.5 C1203.5,1027.5 1177.5,1043.5 1164.5,1018 C1151.5,992.500003 1110.5,904.499997 1063.5,912.5 C1016.5,920.500003 907.500004,1274 995,1302.5 C1082.5,1331 1111,991.5 1111,991.5 C1111,991.5 1149.5,995.499997 1149.5,1015.5 C1149.5,1035.5 1111,1343 1175.5,1311 C1240,1279 1166.5,1035 1276,770.5 C1276,770.5 1291,769.499997 1297.5,790.5 C1304,811.500003 1185,1343 1313.5,1343 C1442,1343 1565.5,967.5 1565.5,967.5 C1565.5,967.5 1381.5,1079 1347.5,1012.5 C1347.5,1012.5 1330.5,1001 1383.5,991 C1436.5,981.000003 1566,927.999997 1566,913 C1566,898.000003 1579.5,767.999997 1624.5,776 C1669.5,784.000003 1666,852.999997 1649,878.5 L1695,863 C1695,863 1785.5,563 1816.5,579 Z M1671.5,928 C1671.5,928 1631,1073.5 1631,1083 C1631,1092.5 1601,969 1628.5,941 L1664.5,931 L1671.5,928 Z M865,994.000005 C865,994.000005 865.583721,993.013643 866.602174,987.656039 C875.559167,940.537488 918.141313,710.01048 893,714.5 C865,719.5 824,946.999995 824,991 C824,991 837.080002,990.000005 853,993.000005 C868.919998,996.000005 865,994.000005 865,994.000005 Z M776.499995,1029.5 C776.499995,1029.5 691.5,1921 644.5,1930 C597.5,1939 361.999995,1451 739.499995,1045 C739.499995,1045 753.499995,1032 762.999995,1029.5 C772.499995,1027 776.499995,1029.5 776.499995,1029.5 Z M316,711 C316,711 289,1844.5 116,1820 C-57,1795.5 106.000002,1003.5 215.500001,841.5 C325.000001,679.5 316,711 316,711 Z M664,302.5 C664,302.5 632,724.5 551.5,720.5 C471,716.5 541,482 655,306.5 C655,306.5 663.499996,293.5 663.5,298 C663.500004,302.5 664,302.5 664,302.5 Z M952.500002,440.999994 C952.500002,440.999994 1025,82 981,88 C937,94 830.5,277.499989 897,381 C897,381 920.437529,415.999992 933.999998,427.499992 C947.562468,438.999992 952.500002,440.999994 952.500002,440.999994 Z M980,492 C980,492 1115.5,520 1131.5,553.5 C1147.5,587 1008.5,723.5 979,697 C949.5,670.5 980,492 980,492 Z" id="Path-2" sketch:type="MSShapeGroup"></path>
        </g>
    </g>
</svg>